# xmcd
#
# Track frame offsets: 
#        150
#        12410
#        26115
#        39370
#        62695
#        80597
#        93085
#        104790
#        119602
#        130580
#        145897
#        158230
#        171457
#        183130
#
# Disc length: 2619 seconds
#
# Revision: 2
# Processed by: cddbd v1.5.2PL0 Copyright (c) Steve Scherf et al.
# Submitted via: ExactAudioCopyFreeDBPlugin 1.0
#
DISCID=bc0a390e
DTITLE=Various Artist - Night Train:  Classic Railroad Songs, Volume 
DTITLE=3 [Rounder]
DYEAR=1998
DGENRE=Trains
TTITLE0=Louis Jordan - Choo Choo Ch' Boogie
TTITLE1=The Delta Rhythm Boys - Take the "A" Train
TTITLE2=Muddy Waters - All Aboard
TTITLE3=Jesse Fuller - Leavin' Memphis, Frisco Bound
TTITLE4=The Holmes Brothers - There's a Train
TTITLE5=Linda Tillery and The Cultural Heritage Choir - Rock Island Li
TTITLE5=ne
TTITLE6=Little Esther and The Robins - Mainliner
TTITLE7=Henry "Ragtime Texas" Thomas - Railroadin' Some
TTITLE8=Little Junior Parker and His Blue Flames - Mystery Train
TTITLE9=Bill Doggett - Night Train
TTITLE10=Nora Lee King - Cannon Ball
TTITLE11=Joe Turner with Pete Johnson's Orchestra - B&O Blues
TTITLE12=Sister Rosetta Tharpe with Lucky Millinder's Orchestra - Trou
TTITLE12=ble in Mind
TTITLE13=Brenda Boykin with The Johnny Nocturne Band - Boogie Woogie C
TTITLE13=hoo Choo Train
EXTD=Rounder Records Corp., 1998
EXTT0=
EXTT1=
EXTT2=
EXTT3=
EXTT4=
EXTT5=
EXTT6=
EXTT7=
EXTT8=
EXTT9=
EXTT10=
EXTT11=
EXTT12=
EXTT13=
PLAYORDER=
